<svg width="40" height="40" viewBox="0 0 40 40" fill="none" xmlns="http://www.w3.org/2000/svg">
  <defs>
    <linearGradient id="subchainGradient" x1="4" y1="4" x2="36" y2="36" gradientUnits="userSpaceOnUse">
      <stop offset="0" stop-color="#6366F1"/>
      <stop offset="0.45" stop-color="#7C3AED"/>
      <stop offset="1" stop-color="#22D3EE"/>
    </linearGradient>
    <linearGradient id="subchainGradientSoft" x1="10" y1="10" x2="30" y2="30" gradientUnits="userSpaceOnUse">
      <stop offset="0" stop-color="#0EA5E9" stop-opacity="0.15"/>
      <stop offset="1" stop-color="#A855F7" stop-opacity="0"/>
    </linearGradient>
  </defs>
  <rect x="2.5" y="2.5" width="35" height="35" rx="11.5" stroke="url(#subchainGradient)" stroke-width="2"/>
  <rect x="7" y="7" width="26" height="26" rx="8" fill="url(#subchainGradientSoft)"/>
  <path d="M15.6 18.2C17.02 16.2 19.43 15 22 15C26.15 15 29.5 18.35 29.5 22.5C29.5 26.65 26.15 30 22 30C19.43 30 17.02 28.8 15.6 26.8" stroke="url(#subchainGradient)" stroke-width="2.4" stroke-linecap="round"/>
  <path d="M24.4 21.8C22.98 23.8 20.57 25 18 25C13.85 25 10.5 21.65 10.5 17.5C10.5 13.35 13.85 10 18 10C20.57 10 22.98 11.2 24.4 13.2" stroke="url(#subchainGradient)" stroke-width="2.4" stroke-linecap="round"/>
</svg>
